<?xml version="1.0" standalone="no"?>
<!DOCTYPE svg PUBLIC "-//W3C//DTD SVG 20010904//EN"
 "http://www.w3.org/TR/2001/REC-SVG-20010904/DTD/svg10.dtd">
<svg version="1.0" xmlns="http://www.w3.org/2000/svg" xlink:href="data:image/png;base64",
 width="300.000000pt" height="300.000000pt" viewBox="0 0 300.000000 300.000000"
 preserveAspectRatio="xMidYMid meet">
<metadata>
Created by potrace 1.10, written by Peter Selinger 2001-2011
</metadata>
<g transform="translate(0.000000,300.000000) scale(0.100000,-0.100000)"
fill="#000000" stroke="none">
<path d="M1328 2455 c-28 -9 -68 -35 -100 -64 l-53 -49 18 -50 c21 -61 22 -88
1 -100 -8 -5 -21 -19 -27 -32 -8 -15 -29 -28 -60 -37 -40 -12 -53 -22 -77 -61
-16 -26 -48 -73 -71 -105 -29 -41 -43 -72 -47 -103 -4 -42 -2 -48 32 -83 l37
-38 -20 -34 c-12 -19 -21 -40 -21 -47 0 -7 20 -35 45 -61 25 -26 45 -50 45
-53 0 -2 -10 -4 -22 -4 -21 1 -23 -3 -21 -46 1 -30 11 -65 29 -97 22 -42 25
-53 14 -66 -26 -31 5 -14 36 20 18 20 35 32 38 26 3 -5 0 -14 -8 -20 -8 -7
-11 -22 -8 -38 3 -19 2 -24 -7 -18 -7 4 -10 13 -7 21 10 27 -14 14 -29 -16
-17 -32 -20 -54 -5 -30 7 12 10 8 11 -15 0 -27 3 -26 14 12 3 7 33 -18 70 -57
46 -49 65 -77 65 -95 0 -41 17 -63 58 -75 84 -23 287 -6 406 35 74 26 111 53
120 91 8 30 31 22 52 -17 11 -22 22 -29 43 -29 32 0 91 43 91 66 0 8 18 34 40
58 103 111 112 254 22 332 -23 21 -24 22 -7 48 9 14 14 33 11 42 -4 10 0 22
10 29 19 13 13 40 -17 79 -16 20 -21 43 -22 103 -3 86 -30 160 -82 221 -23 28
-28 43 -30 105 -6 139 -49 197 -148 197 -29 0 -86 12 -137 30 -108 37 -215 46
-282 25z m276 -44 c51 -21 95 -31 129 -31 102 0 138 -47 141 -180 1 -71 4 -82
28 -107 56 -58 105 -214 82 -256 -8 -15 -13 -14 -38 7 -28 22 -29 24 -14 45
l16 23 7 -31 c4 -17 11 -33 16 -36 34 -22 -50 197 -102 264 -15 19 -19 41 -19
107 l0 83 -35 27 c-29 22 -42 26 -76 21 -32 -4 -55 1 -105 24 -36 16 -68 28
-72 27 -4 -1 -22 6 -40 16 -19 9 -36 15 -38 13 -3 -2 9 -10 25 -17 17 -7 35
-18 41 -25 6 -8 19 -11 27 -8 10 4 14 2 10 -4 -4 -6 1 -17 10 -24 12 -10 14
-10 9 -1 -10 16 -6 15 48 -8 25 -10 66 -20 91 -21 82 -5 96 -38 76 -176 -4
-30 -4 -50 2 -46 5 3 7 -3 6 -13 -2 -11 9 -32 24 -49 17 -17 26 -37 24 -47 -3
-10 -2 -16 3 -13 4 2 15 -14 25 -36 25 -53 9 -71 -35 -39 -17 12 -29 25 -26
28 3 2 12 -1 21 -8 8 -7 15 -10 15 -7 0 12 -73 55 -85 51 -7 -3 -16 0 -21 7
-5 8 -3 10 7 4 8 -5 11 -4 6 1 -5 5 -16 9 -25 9 -9 0 -16 6 -14 13 1 8 -1 11
-6 8 -11 -7 -93 50 -84 59 4 5 1 5 -6 1 -7 -4 -18 -3 -25 2 -7 5 -43 21 -80
36 -61 24 -212 46 -334 48 -29 1 -29 9 -2 26 17 11 20 21 17 55 -3 23 -8 50
-12 59 -7 15 -4 15 29 -2 35 -18 36 -18 98 6 40 16 90 27 142 30 43 3 81 6 83
8 2 2 -18 11 -44 20 -51 17 -113 19 -154 6 -17 -6 -9 -7 25 -4 28 3 68 1 90
-4 l40 -10 -57 -1 c-31 -1 -85 -10 -120 -21 -78 -24 -87 -24 -118 1 l-25 21
43 38 c61 54 111 71 203 66 54 -3 97 -12 153 -35z m-134 -303 c59 -13 184 -76
251 -125 186 -137 239 -176 239 -180 0 -2 -4 -1 -10 2 -20 12 -9 -2 22 -31
l33 -29 -25 29 c-14 16 -19 27 -11 24 8 -2 29 -21 45 -42 30 -37 31 -38 11
-52 -11 -8 -19 -22 -17 -30 2 -8 -1 -14 -6 -14 -16 0 -34 29 -26 41 5 8 3 9
-5 5 -8 -5 -14 0 -18 13 -3 12 -12 21 -19 21 -8 0 -14 4 -14 9 0 5 -13 14 -30
21 -16 7 -27 16 -24 21 3 5 -3 6 -12 2 -12 -5 -15 -3 -9 6 6 10 2 11 -15 6
-15 -5 -20 -4 -16 4 4 6 1 11 -8 11 -8 0 -18 -5 -21 -10 -7 -12 147 -208 157
-200 4 3 14 -4 22 -15 9 -11 15 -15 16 -10 0 14 -67 125 -93 153 -17 18 -18
22 -5 17 22 -9 59 -58 90 -120 46 -90 46 -91 -13 -98 -43 -5 -57 -3 -81 14
-15 11 -25 25 -22 31 4 6 3 8 -3 5 -6 -4 -21 5 -34 20 -13 14 -50 47 -81 73
-31 27 -54 51 -50 56 4 4 2 4 -5 0 -16 -9 -64 14 -56 27 4 6 0 8 -11 4 -10 -4
-65 7 -125 24 -58 17 -137 34 -176 36 -62 5 -83 1 -193 -36 -117 -39 -124 -40
-148 -24 -35 22 -55 64 -46 96 4 15 24 50 44 79 21 29 53 75 70 102 48 73 95
87 258 80 69 -3 145 -10 170 -16z m430 -85 c0 -2 -4 -3 -10 -3 -5 0 -10 6 -10
14 0 7 -7 19 -15 26 -8 7 -15 17 -15 23 0 6 11 -4 25 -23 14 -19 25 -35 25
-37z m-64 -91 c-4 -3 -14 2 -24 12 -16 18 -16 18 6 6 13 -6 21 -14 18 -18z
m-441 -135 c11 -3 32 -10 48 -16 15 -6 57 -18 93 -26 99 -23 109 -32 37 -37
-45 -2 -59 0 -56 9 16 42 -117 35 -211 -11 l-49 -24 -41 26 c-83 53 -84 54
-29 73 45 16 153 19 208 6z m467 -44 c40 -43 88 -116 88 -135 0 -7 -11 1 -23
17 -12 17 -46 58 -75 93 -57 67 -49 86 10 25z m-691 -35 c35 -24 67 -46 70
-51 3 -4 28 4 55 18 57 29 145 55 189 55 l30 -1 -25 -13 c-14 -8 -29 -12 -33
-9 -15 9 -65 -47 -85 -96 -44 -104 -34 -134 13 -40 33 65 81 96 170 109 69 10
70 9 91 -16 16 -19 23 -22 26 -13 8 22 63 -35 78 -81 12 -36 10 -173 -2 -186
-3 -2 -19 2 -37 9 -32 14 -33 15 -34 83 -2 87 -28 133 -93 165 -40 19 -51 20
-84 10 -108 -32 -147 -187 -71 -281 30 -38 31 -39 11 -50 -22 -12 -93 -3 -85
11 9 13 -32 49 -55 49 -12 0 -34 -7 -50 -15 -40 -21 -59 -10 -86 49 -35 75
-31 134 7 100 12 -11 16 -25 12 -54 -7 -49 20 -100 49 -92 15 4 18 10 13 31
-12 50 -56 130 -76 136 -33 11 -52 -13 -45 -58 8 -48 42 -116 61 -124 8 -3 12
-9 9 -14 -3 -5 -16 -3 -30 4 -17 9 -36 39 -58 89 -18 42 -48 95 -65 117 -28
35 -30 42 -19 60 30 48 111 14 175 -74 19 -25 17 -18 -9 46 -23 57 -39 81 -61
94 -27 16 -30 17 -24 1 5 -13 1 -12 -23 5 -37 28 -56 20 -79 -31 -15 -34 -20
-38 -30 -26 -33 40 46 119 125 125 6 1 40 -18 75 -41z m509 -14 c0 -2 -7 -4
-15 -4 -8 0 -15 4 -15 10 0 5 7 7 15 4 8 -4 15 -8 15 -10z m-90 -77 c49 -32
74 -81 75 -143 0 -58 -6 -68 -48 -78 -28 -7 -28 -6 -13 16 27 38 13 101 -28
130 -36 25 -86 -11 -86 -60 0 -33 28 -82 52 -91 19 -7 16 -10 -23 -29 l-43
-22 -23 22 c-13 12 -30 44 -38 70 -23 78 0 153 58 188 42 26 76 25 117 -3z
m282 -92 l27 -20 -60 -54 -60 -54 6 59 c5 42 2 72 -9 104 -23 65 -21 67 27 24
23 -22 54 -48 69 -59z m-296 -22 c16 -21 18 -71 4 -93 -15 -24 -60 25 -60 65
0 17 3 35 7 38 12 12 36 7 49 -10z m-508 -37 c21 -36 22 -60 3 -95 l-14 -25
-18 35 c-23 43 -42 107 -34 118 10 17 44 -1 63 -33z m992 29 c7 -8 13 -32 13
-53 3 -113 -76 -224 -183 -257 -22 -7 -23 -6 -11 8 17 21 10 39 -17 43 -14 3
-20 -1 -17 -9 3 -6 1 -18 -4 -26 -11 -18 -51 -5 -51 17 1 15 3 14 15 -2 14
-19 15 -18 15 11 0 18 -4 43 -10 57 -6 18 -6 26 1 26 6 0 8 15 4 38 -4 30 -1
45 15 65 27 34 84 68 140 83 61 17 75 17 90 -1z m-349 -117 l41 -13 -5 -68
c-7 -79 -41 -151 -97 -201 -31 -28 -49 -35 -114 -45 -102 -15 -254 -14 -286 2
-17 9 -27 24 -31 49 -3 20 -19 53 -35 73 -16 20 -37 46 -47 59 -10 12 -20 39
-24 60 l-6 39 40 -6 c29 -5 50 -2 78 13 64 33 126 20 110 -23 -5 -11 3 -16 37
-19 35 -4 56 2 113 30 73 37 137 60 168 61 9 1 36 -5 58 -11z m82 -50 c0 -108
-26 -186 -72 -216 -22 -15 -22 -13 9 48 35 70 43 101 43 173 1 31 4 44 11 37
5 -5 9 -24 9 -42z m70 -144 l-6 -36 32 17 c18 9 35 14 39 11 3 -3 12 0 20 7
13 10 14 9 4 -9 -14 -26 -31 -40 -59 -48 -33 -10 -58 31 -42 68 16 35 19 33
12 -10z"/>
<path d="M1418 2433 c7 -3 16 -2 19 1 4 3 -2 6 -13 5 -11 0 -14 -3 -6 -6z"/>
<path d="M1318 2343 c7 -3 16 -2 19 1 4 3 -2 6 -13 5 -11 0 -14 -3 -6 -6z"/>
<path d="M1634 2326 c11 -9 24 -16 30 -16 12 0 7 5 -24 19 -24 11 -24 11 -6
-3z"/>
<path d="M1268 2313 c7 -3 16 -2 19 1 4 3 -2 6 -13 5 -11 0 -14 -3 -6 -6z"/>
<path d="M1387 2290 c-43 -9 -83 -22 -89 -28 -16 -16 -9 -15 43 5 32 12 77 16
167 16 67 0 122 4 122 9 0 4 -21 9 -47 9 -27 1 -64 3 -83 4 -19 2 -70 -5 -113
-15z"/>
<path d="M1701 2297 c3 -4 23 -10 45 -15 38 -8 39 -9 45 -57 l6 -50 1 46 c1
27 -3 51 -10 57 -14 11 -97 29 -87 19z"/>
<path d="M1373 2260 c-24 -5 -51 -14 -60 -20 -15 -10 -14 -10 7 -5 64 18 220
13 220 -6 0 -5 -9 -5 -20 -1 -39 15 -182 -5 -245 -34 -33 -15 -55 -29 -48 -31
7 -2 20 0 31 6 41 22 166 43 221 38 72 -8 133 -26 126 -37 -4 -6 1 -7 11 -3
12 4 15 3 10 -5 -4 -7 -2 -10 7 -6 8 3 20 -3 28 -13 13 -17 13 -17 -6 -3 -19
14 -19 14 -6 -3 8 -10 20 -16 28 -13 8 3 12 2 9 -3 -3 -4 10 -23 29 -41 43
-42 45 -27 5 28 -32 45 -86 85 -137 103 -18 6 -33 15 -33 20 0 22 150 -49 199
-95 l34 -31 -25 44 c-28 50 -87 97 -133 106 -21 5 -15 -1 21 -18 28 -14 55
-31 60 -38 5 -9 -3 -7 -20 4 -74 49 -224 76 -313 57z"/>
<path d="M1812 2210 c0 -19 2 -27 5 -17 2 9 2 25 0 35 -3 9 -5 1 -5 -18z"/>
<path d="M1355 2160 c17 -4 44 -8 60 -8 25 0 24 2 -10 9 -51 10 -92 10 -50 -1z"/>
<path d="M1470 2151 c-24 -7 -24 -7 9 -14 19 -4 36 -5 39 -2 3 3 -2 5 -12 5
-9 0 -14 5 -11 10 3 6 5 10 3 9 -2 -1 -14 -4 -28 -8z"/>
<path d="M1570 2110 c24 -12 51 -26 59 -33 12 -9 13 -9 7 1 -9 14 -51 37 -86
46 -14 3 -5 -3 20 -14z"/>
<path d="M1760 2017 c0 -3 12 -12 26 -22 15 -9 23 -12 20 -6 -7 11 -46 35 -46
28z"/>
<path d="M1155 2107 c-41 -13 -75 -46 -75 -72 0 -12 -7 -30 -15 -41 -15 -19
-15 -19 -8 1 7 21 5 21 -17 -9 -12 -16 -12 -18 -1 -12 9 6 12 4 9 -5 -3 -8
-10 -14 -15 -14 -13 0 -28 -13 -28 -25 0 -4 -12 -20 -27 -34 -33 -29 -35 -55
-10 -86 22 -27 65 -29 112 -5 45 23 176 55 226 55 24 0 108 -13 187 -30 156
-32 216 -37 250 -18 21 11 21 10 7 -8 -8 -11 -3 -8 14 6 l28 25 -34 9 c-124
32 -134 36 -206 101 -88 79 -110 86 -30 10 82 -78 127 -105 188 -112 47 -5 51
-7 29 -15 -37 -14 -155 4 -144 22 3 4 -3 7 -13 6 -9 0 -16 4 -15 10 1 6 -23
35 -54 65 -33 31 -45 40 -29 20 15 -19 39 -43 52 -54 14 -11 23 -22 20 -25
-12 -11 -79 53 -108 105 -18 31 -41 58 -55 64 -23 9 -181 13 -172 5 2 -2 38
-7 79 -11 91 -8 101 -13 133 -68 14 -24 45 -61 68 -82 l42 -38 -49 7 c-27 3
-62 10 -79 14 -16 4 -70 7 -120 6 -74 0 -106 -6 -181 -32 -110 -39 -121 -39
-136 -7 -11 24 -8 29 39 73 44 41 94 112 78 112 -3 0 1 13 10 30 24 46 55 56
130 42 l30 -5 -25 -8 c-16 -4 1 -7 50 -8 94 -1 181 -12 175 -21 -2 -3 10 -4
27 -2 24 4 29 2 23 -8 -6 -10 -4 -12 8 -7 17 6 107 -30 142 -57 19 -15 18 -15
-10 -7 -16 5 -47 16 -69 26 -21 9 -40 14 -42 12 -6 -6 115 -54 149 -60 31 -5
34 0 10 20 -92 74 -210 117 -361 133 -53 5 -110 12 -127 14 -16 2 -43 -1 -60
-7z"/>
<path d="M1880 1835 c13 -14 26 -25 28 -25 3 0 -5 11 -18 25 -13 14 -26 25
-28 25 -3 0 5 -11 18 -25z"/>
<path d="M1720 1733 c14 -10 57 -48 97 -85 40 -38 75 -68 79 -68 14 0 -134
136 -167 153 -32 17 -33 17 -9 0z"/>
<path d="M1876 1571 c6 -7 31 -14 55 -17 l44 -3 -43 9 c-23 5 -48 12 -55 16
-9 5 -9 4 -1 -5z"/>
<path d="M1071 1726 c2 -2 18 -6 34 -10 22 -5 26 -4 15 4 -14 9 -59 15 -49 6z"/>
<path d="M1340 1667 c-14 -12 -35 -35 -48 -52 l-24 -30 7 30 c6 28 5 29 -9 11
-20 -24 -32 -121 -18 -149 10 -21 11 -20 12 8 1 46 36 115 83 163 43 44 41 58
-3 19z"/>
<path d="M1600 1676 c0 -2 7 -9 15 -16 9 -7 15 -8 15 -2 0 5 -7 12 -15 16 -8
3 -15 4 -15 2z"/>
<path d="M1236 1634 c-9 -24 -2 -26 12 -4 7 11 8 20 3 20 -5 0 -12 -7 -15 -16z"/>
<path d="M1654 1621 c8 -9 19 -28 25 -41 l10 -25 0 25 c0 36 -11 55 -32 56
-16 2 -17 0 -3 -15z"/>
<path d="M1101 1596 c2 -2 15 -9 29 -15 24 -11 24 -11 6 3 -16 13 -49 24 -35
12z"/>
<path d="M1076 1582 c-2 -4 3 -21 13 -36 l19 -28 0 26 c0 27 -22 53 -32 38z"/>
<path d="M1721 1489 c6 -24 13 -46 16 -49 10 -9 -6 73 -16 83 -6 6 -6 -7 0
-34z"/>
<path d="M1366 1436 c6 -44 22 -91 29 -84 3 3 -4 31 -15 64 -16 48 -19 52 -14
20z"/>
<path d="M1504 1589 c-28 -10 -64 -57 -64 -83 0 -26 34 -101 50 -111 6 -4 2
11 -9 34 -41 80 -21 139 52 151 26 5 28 7 12 11 -12 3 -30 3 -41 -2z"/>
<path d="M1030 1450 c0 -5 4 -10 9 -10 5 0 18 -3 28 -6 16 -5 16 -4 -1 10 -23
18 -36 20 -36 6z"/>
<path d="M1955 1443 c-47 -12 -114 -74 -115 -105 0 -9 -6 -18 -12 -21 -15 -5
18 -47 37 -47 25 0 48 38 42 70 -8 37 5 39 32 4 13 -16 21 -21 21 -12 0 21
-22 46 -45 50 -17 3 -15 7 14 22 24 13 47 17 79 13 37 -4 42 -3 31 8 -17 17
-57 25 -84 18z m-79 -141 c-4 -3 -11 -1 -17 5 -8 8 -7 18 3 34 l13 24 3 -28
c2 -16 1 -31 -2 -35z"/>
<path d="M1945 1269 c-38 -39 -32 -45 8 -10 18 15 42 51 34 51 -1 0 -21 -19
-42 -41z"/>
<path d="M1655 1337 l-30 -11 30 -6 c23 -4 30 -11 29 -28 -1 -29 10 -28 24 3
25 54 10 66 -53 42z"/>
<path d="M1211 1309 c7 -14 14 -18 21 -11 13 13 2 32 -18 32 -12 0 -13 -4 -3
-21z"/>
<path d="M1275 1309 c-12 -18 3 -22 20 -5 14 14 14 16 1 16 -8 0 -18 -5 -21
-11z"/>
<path d="M1133 1299 c9 -5 17 -14 17 -19 0 -4 33 -42 73 -83 79 -83 126 -109
199 -108 85 0 137 39 224 168 18 26 32 48 31 49 -1 0 -43 -3 -94 -7 -51 -4
-128 -19 -175 -34 -62 -20 -96 -25 -133 -22 -71 7 -105 22 -105 47 0 15 -6 20
-27 20 -24 -1 -25 -2 -10 -11z m491 -44 c-16 -25 -19 -26 -25 -9 -12 29 -11
32 14 36 30 5 31 4 11 -27z m-42 0 c4 -18 -1 -29 -18 -40 -26 -17 -29 -14 -39
33 -6 30 -5 32 23 32 24 0 31 -5 34 -25z m-68 -17 c7 -36 -3 -52 -30 -46 -21
4 -38 64 -20 72 29 12 44 5 50 -26z m-70 -4 c3 -9 6 -25 6 -35 0 -32 -54 -22
-58 10 -5 36 39 58 52 25z m-124 -34 c0 -28 -59 -8 -60 21 0 3 14 4 30 1 21
-3 30 -10 30 -22z m60 5 c0 -29 -34 -36 -44 -9 -8 21 1 34 25 34 14 0 19 -7
19 -25z m185 -25 c-10 -11 -21 -17 -24 -14 -3 3 3 12 13 20 28 20 32 17 11 -6z
m-245 -25 c7 -9 11 -18 8 -20 -9 -10 -38 7 -38 21 0 18 14 18 30 -1z m210 1
c0 -7 -11 -21 -24 -29 -23 -15 -24 -15 -30 6 -3 12 0 25 7 29 20 12 47 9 47
-6z m-140 -21 c0 -26 -7 -29 -34 -19 -27 10 -20 44 9 44 20 0 25 -5 25 -25z
m72 0 c6 -30 2 -35 -34 -35 -23 0 -28 4 -28 23 0 29 7 37 36 37 15 0 23 -7 26
-25z"/>
<path d="M1555 1110 c-3 -6 1 -7 9 -4 18 7 21 14 7 14 -6 0 -13 -4 -16 -10z"/>
<path d="M1896 1166 c-16 -7 -24 -16 -18 -20 5 -3 21 3 33 14 28 22 25 23 -15
6z"/>
<path d="M400 947 c-31 -15 -49 -61 -34 -85 6 -9 31 -25 55 -34 36 -14 39 -17
19 -17 -15 -1 -31 4 -36 9 -8 8 -18 5 -33 -7 l-23 -18 21 -19 c11 -10 39 -21
63 -23 54 -6 98 23 98 67 0 32 -18 50 -69 67 l-36 12 35 -4 c42 -6 65 7 57 29
-7 17 -47 36 -75 36 -9 0 -28 -6 -42 -13z m89 -16 c7 -5 11 -14 7 -20 -5 -7
-13 -7 -26 2 -14 8 -25 9 -36 2 -26 -17 -18 -29 28 -45 36 -13 44 -20 46 -45
4 -36 -18 -55 -66 -55 -43 0 -81 19 -61 31 7 4 19 3 26 -2 18 -15 68 -7 68 11
0 8 -15 20 -33 26 -46 15 -66 37 -58 67 3 14 14 28 24 30 30 8 66 7 81 -2z"/>
<path d="M590 940 c-10 -20 -60 -170 -60 -181 0 -5 13 -9 29 -9 21 0 32 6 36
20 8 27 51 27 60 0 5 -17 14 -19 73 -17 l67 2 -3 38 c-5 49 4 47 18 -3 15 -56
44 -55 70 3 l19 42 -2 -40 c-2 -38 0 -40 30 -43 38 -4 41 4 39 113 l-1 80 -47
3 c-44 3 -48 1 -54 -22 -8 -33 -20 -33 -28 -1 -6 23 -11 25 -57 25 l-51 0 3
-85 c2 -47 1 -85 -3 -85 -5 0 -8 8 -8 18 -1 9 -13 48 -28 86 -26 66 -29 69
-60 70 -21 1 -37 -5 -42 -14z m92 -80 c15 -41 27 -78 27 -82 2 -18 -38 -6 -44
12 -5 15 -15 20 -40 20 -25 0 -35 -5 -40 -20 -3 -11 -13 -20 -21 -20 -17 0
-18 -4 5 61 38 107 40 111 64 107 18 -2 27 -18 49 -78z m148 35 c7 -25 16 -45
20 -45 4 0 13 20 20 45 12 42 15 45 46 45 l34 0 0 -85 c0 -78 -2 -85 -20 -85
-18 0 -20 7 -20 60 0 33 -4 60 -8 60 -5 0 -17 -27 -27 -60 -10 -33 -23 -60
-30 -60 -7 0 -20 27 -30 60 -10 33 -22 60 -27 60 -4 0 -8 -27 -8 -60 0 -47 -3
-60 -15 -60 -12 0 -15 16 -15 85 l0 85 34 0 c31 0 34 -3 46 -45z"/>
<path d="M610 876 c-15 -40 -13 -46 16 -46 24 0 25 3 19 28 -10 42 -23 49 -35
18z"/>
<path d="M1702 952 l-43 -3 3 -97 3 -97 30 0 c27 0 30 3 29 33 -2 43 12 41 20
-3 6 -29 11 -35 31 -35 20 0 27 8 37 43 l13 42 3 -43 c3 -42 4 -43 35 -40 30
3 32 6 38 53 3 28 7 38 7 23 5 -73 107 -103 162 -48 15 15 20 34 20 73 0 44
-4 58 -26 78 -52 48 -151 17 -156 -50 0 -14 -4 -4 -7 23 l-6 49 -45 0 c-42 0
-46 -2 -56 -32 -10 -32 -24 -32 -24 -1 0 26 -20 35 -68 32z m58 -57 c7 -25 16
-45 20 -45 5 0 15 19 22 43 13 36 19 42 46 45 l32 3 0 -85 c0 -79 -2 -86 -20
-86 -18 0 -20 7 -20 60 0 33 -4 60 -8 60 -5 0 -17 -27 -27 -60 -10 -33 -23
-60 -30 -60 -7 0 -20 27 -30 60 -10 33 -22 60 -27 60 -4 0 -8 -27 -8 -60 0
-47 -3 -60 -15 -60 -12 0 -15 16 -15 85 l0 85 34 0 c31 0 34 -3 46 -45z m295
20 c52 -51 16 -145 -55 -145 -44 0 -80 39 -80 85 0 46 36 85 80 85 19 0 40 -9
55 -25z"/>
<path d="M1970 901 c-23 -44 -5 -111 30 -111 23 0 40 28 40 65 0 37 -17 65
-40 65 -11 0 -24 -9 -30 -19z m48 -49 c3 -37 1 -42 -17 -42 -18 0 -21 6 -21
38 0 68 33 71 38 4z"/>
<path d="M2103 945 c-2 -7 -3 -52 -1 -101 3 -89 3 -89 31 -92 28 -3 30 0 28
53 l-2 30 30 -35 c17 -19 31 -39 31 -43 0 -5 12 -7 28 -5 l27 3 3 98 3 97 -31
0 c-28 0 -30 -3 -30 -36 l0 -37 -28 38 c-20 28 -35 39 -56 40 -15 0 -30 -4
-33 -10z m85 -50 c17 -25 36 -45 42 -45 5 0 10 21 10 46 0 32 4 44 13 41 8 -2
12 -29 12 -85 0 -101 -13 -106 -70 -29 l-40 52 -3 -52 c-2 -38 -7 -53 -18 -53
-11 0 -14 17 -14 85 0 75 2 85 18 85 10 0 32 -20 50 -45z"/>
<path d="M2384 925 l-24 -30 0 28 c0 24 -3 27 -35 27 l-36 0 3 -97 3 -98 33
-3 c30 -3 32 -1 32 27 0 43 14 46 33 7 l16 -34 115 -1 116 -1 0 30 c0 29 -2
30 -45 30 -25 0 -45 5 -45 10 0 6 14 10 30 10 25 0 30 4 30 25 0 21 -5 25 -30
25 -16 0 -30 5 -30 10 0 6 20 10 45 10 41 0 45 2 45 25 0 25 -1 25 -80 25
l-80 0 0 -87 -1 -88 -24 45 c-30 56 -31 72 -5 95 26 24 21 38 -14 40 -20 0
-35 -8 -52 -30z m-34 -20 c0 -44 9 -44 39 0 13 19 30 35 37 35 18 0 18 -14 -1
-30 -20 -17 -19 -26 10 -87 23 -51 23 -53 5 -53 -13 0 -27 15 -41 42 -20 39
-22 41 -35 23 -8 -10 -14 -29 -14 -42 0 -16 -6 -23 -20 -23 -18 0 -20 7 -20
85 0 78 2 85 20 85 16 0 20 -7 20 -35z m270 20 c0 -11 -11 -15 -40 -15 -33 0
-40 -3 -40 -20 0 -15 7 -20 25 -20 16 0 25 -6 25 -15 0 -9 -9 -15 -25 -15 -20
0 -25 -5 -25 -25 0 -23 4 -25 45 -25 25 0 45 -4 45 -10 0 -6 -28 -10 -65 -10
l-65 0 0 85 0 85 60 0 c47 0 60 -3 60 -15z"/>
<path d="M980 849 l0 -100 33 3 32 3 3 98 3 97 -36 0 -35 0 0 -101z m50 6 c0
-78 -2 -85 -20 -85 -18 0 -20 7 -20 85 0 78 2 85 20 85 18 0 20 -7 20 -85z"/>
<path d="M1060 849 l0 -100 33 3 c29 3 32 6 37 43 l5 40 17 -42 c14 -37 20
-43 47 -43 39 0 45 11 25 54 -16 32 -16 36 0 51 22 22 20 51 -4 75 -16 16 -33
20 -90 20 l-70 0 0 -101z m138 75 c26 -18 28 -41 5 -66 -15 -17 -15 -21 0 -53
17 -35 17 -35 -7 -35 -18 0 -25 8 -32 33 -7 22 -17 33 -32 35 -19 3 -22 -1
-22 -32 0 -29 -4 -36 -20 -36 -18 0 -20 7 -20 85 l0 85 53 0 c31 0 61 -6 75
-16z"/>
<path d="M1114 906 c-14 -37 20 -59 56 -36 12 7 12 13 4 27 -15 24 -52 29 -60
9z m46 -16 c0 -5 -7 -10 -15 -10 -8 0 -15 5 -15 10 0 6 7 10 15 10 8 0 15 -4
15 -10z"/>
<path d="M1292 853 l3 -98 158 -2 157 -3 0 30 c0 29 -2 30 -45 30 -25 0 -45 5
-45 10 0 6 14 10 30 10 25 0 30 4 30 25 0 21 -5 25 -30 25 -16 0 -30 5 -30 10
0 6 20 10 45 10 41 0 45 2 45 25 0 25 -1 25 -80 25 l-80 0 0 -73 0 -72 -45 3
-45 4 0 69 0 69 -35 0 -36 0 3 -97z m58 25 c-1 -35 -1 -69 -1 -75 1 -8 16 -13
41 -13 22 0 40 -4 40 -10 0 -6 -27 -10 -60 -10 l-60 0 0 85 c0 79 1 85 21 85
19 0 20 -5 19 -62z m240 48 c0 -10 -14 -16 -42 -18 -31 -2 -44 -8 -46 -20 -3
-14 3 -18 27 -18 21 0 31 -5 31 -15 0 -10 -10 -15 -31 -15 -26 0 -30 -3 -27
-22 3 -20 10 -23 51 -26 67 -4 48 -22 -24 -22 l-59 0 0 85 0 85 60 0 c46 0 60
-3 60 -14z"/>
<path d="M1270 591 l0 -61 33 0 c44 0 73 21 62 46 -4 10 -8 30 -9 44 -1 22 -6
25 -43 28 l-43 3 0 -60z m68 27 c-7 -20 -48 -23 -48 -4 0 11 9 16 26 16 16 0
24 -5 22 -12z m1 -37 c19 -12 4 -31 -25 -31 -17 0 -24 5 -24 20 0 21 24 27 49
11z"/>
<path d="M1390 590 c0 -33 4 -60 10 -60 6 0 10 11 10 25 0 15 6 25 15 25 8 0
22 -11 31 -25 9 -14 23 -25 30 -25 12 0 12 4 -1 24 -13 20 -14 28 -4 44 19 30
-4 52 -52 52 l-39 0 0 -60z m78 23 c2 -9 -7 -13 -27 -13 -21 0 -31 5 -31 16 0
19 51 16 58 -3z"/>
<path d="M1510 600 c0 -44 3 -52 25 -62 19 -8 31 -8 50 0 22 10 25 18 25 62 0
27 -4 50 -10 50 -5 0 -10 -15 -10 -34 0 -47 -9 -66 -31 -66 -21 0 -34 36 -27
75 4 17 1 25 -8 25 -10 0 -14 -15 -14 -50z"/>
<path d="M1630 590 c0 -49 3 -60 16 -60 12 0 15 7 12 25 -5 22 -2 25 23 25 24
0 29 -4 29 -25 0 -14 5 -25 10 -25 6 0 10 27 10 60 0 33 -4 60 -10 60 -5 0
-10 -11 -10 -25 0 -20 -5 -25 -25 -25 -20 0 -25 5 -25 25 0 16 -6 25 -15 25
-12 0 -15 -13 -15 -60z"/>
</g>
</svg>
